<?xml version="1.0" encoding="UTF-8"?><svg id="Layer_1" xmlns="http://www.w3.org/2000/svg" viewBox="0 0 1204 432"><defs><style>.cls-1{fill:#2753d1;fill-rule:evenodd;}.cls-2{fill:#181c28;}</style></defs><path class="cls-2" d="m365.03,262.33c-.87-1.22-.87-2.45.35-3.85l10.15-11.72c1.23-1.4,2.63-1.58,4.02-.35,7.7,7.87,14.69,12.07,24.66,12.07s17.15-4.37,17.15-13.12c0-8.23-6.13-11.2-14.69-15.05l-14.87-7c-12.95-5.95-24.49-15.22-24.49-33.42,0-22.21,16.97-34.47,37.79-34.47,14.52,0,26.24,5.77,35.87,16.1,1.23,1.23,1.23,2.63.18,4.02l-9.97,12.07c-1.05,1.4-2.45,1.74-3.85.7-7.52-6.65-13.65-9.97-21.34-9.97-8.92,0-14.52,4.37-14.52,11.72s4.9,9.97,14.34,14.34l12.6,5.77c13.29,6.29,27.29,14.52,27.29,35.16,0,24.66-20.11,36.03-40.94,36.03-19.07,0-32.53-9.27-39.71-19.07v.03Z"/><path class="cls-2" d="m459.5,236.09c0-25.19,17.66-44.61,44.08-44.61s41.11,19.24,41.11,40.94c0,8.4-1.92,13.11-9.45,13.11h-52.13c2.63,10.84,11.55,16.79,25.37,16.79,6.65,0,12.95-1.23,19.94-5.24,1.23-.7,2.1-.53,2.97.7l6.47,8.92c.87,1.23.7,2.45-.87,3.85-7.35,7.35-18.37,10.84-30.44,10.84-28.16,0-47.06-19.42-47.06-45.31h.01Zm63.68-7.51c-1.4-11.37-9.1-17.14-19.42-17.14s-18.89,5.77-21,17.14h40.42Z"/><path class="cls-2" d="m560.96,276.67v-80.47c0-1.58,1.05-2.63,2.63-2.63h18.19c1.58,0,2.45.7,2.63,2.8l.7,11.02c2.97-9.1,8.4-15.92,18.55-15.92,4.02,0,6.47,1.05,7.87,2.1,1.22.87,1.58,1.92,1.58,3.5v15.39c0,2.1-1.23,2.63-3.5,2.1-1.92-.53-3.85-.87-6.29-.87-11.9,0-18.19,7.87-18.19,20.11v42.86c0,1.58-1.05,2.63-2.63,2.63h-18.89c-1.58,0-2.63-1.05-2.63-2.63h-.01Z"/><path class="cls-2" d="m621.83,236.43c0-25.37,16.61-44.96,40.76-44.96,12.95,0,22.21,5.24,27.99,14.18l.35-9.45c0-1.58,1.05-2.63,2.63-2.63h17.14c1.58,0,2.63,1.05,2.63,2.63v80.47c0,1.58-1.22,2.63-2.8,2.63h-16.97c-1.58,0-2.63-1.05-2.63-2.63l-.35-9.45c-5.95,8.74-15.22,14.18-27.99,14.18-24.14,0-40.76-19.42-40.76-44.96h0Zm45.84,22.93c12.77,0,21.69-9.1,21.69-22.92s-8.92-22.92-21.69-22.92-22.21,9.27-22.21,22.92,9.45,22.92,22.21,22.92Z"/><path class="cls-2" d="m733.09,164.88c0-7.35,5.77-13.29,13.47-13.29s13.29,5.95,13.29,13.29-5.6,13.47-13.29,13.47-13.47-5.95-13.47-13.47Zm1.22,31.31c0-1.58,1.05-2.63,2.63-2.63h19.07c1.58,0,2.63,1.05,2.63,2.63v80.47c0,1.58-1.05,2.63-2.63,2.63h-19.07c-1.58,0-2.63-1.05-2.63-2.63v-80.47Z"/><path class="cls-2" d="m815.48,276.67v-117.21c0-1.58,1.05-2.63,2.63-2.63h36.03c40.93,0,62.45,26.76,62.45,61.23s-21.52,61.23-62.45,61.23h-36.03c-1.58,0-2.63-1.05-2.63-2.63h0Zm38.31-19.59c24.84,0,37.44-13.82,37.44-39.01s-12.6-39.01-37.44-39.01h-13.29v78.02h13.29Z"/><path class="cls-2" d="m936.35,276.67v-117.21c0-1.58,1.05-2.63,2.63-2.63h62.27c1.58,0,2.63,1.05,2.63,2.63v16.97c0,1.58-1.05,2.63-2.63,2.63h-39.89v27.11h37.61c1.58,0,2.63,1.05,2.63,2.63v16.97c0,1.58-1.05,2.63-2.63,2.63h-37.61v28.69h39.89c1.58,0,2.63,1.05,2.63,2.63v16.97c0,1.58-1.05,2.63-2.63,2.63h-62.27c-1.58,0-2.63-1.05-2.63-2.63h0Z"/><path class="cls-2" d="m1020.85,276.14l35.16-59.48-33.42-56.68c-1.05-1.92-.35-3.15,1.74-3.15h21.16c1.4,0,2.63.53,3.32,1.74l20.82,35.16,20.82-35.16c.53-1.23,1.75-1.74,3.15-1.74h21.16c2.1,0,2.81,1.23,1.75,3.15l-33.42,56.68,35.16,59.48c1.05,1.92.35,3.15-1.74,3.15h-21.52c-1.4,0-2.45-.53-3.15-1.75l-22.21-37.96-22.39,37.96c-.7,1.23-1.74,1.75-3.15,1.75h-21.52c-2.1,0-2.8-1.23-1.74-3.15Z"/><path class="cls-1" d="m241.23,93.54c3.18-3.98,8.99-4.62,12.97-1.44l30.76,24.59c2.19,1.75,3.46,4.4,3.46,7.2s-1.27,5.45-3.46,7.2l-30.76,24.59c-3.98,3.18-9.79,2.54-12.97-1.44-3.18-3.98-2.54-9.78,1.44-12.96l10.22-8.17h-96.73c-28.88,0-52.29,23.39-52.29,52.24s23.41,52.24,52.29,52.24h61.52c5.1,0,9.23,4.13,9.23,9.22s-4.13,9.22-9.23,9.22h-61.52c-39.07,0-70.74-31.65-70.74-70.68s31.67-70.68,70.74-70.68h96.73l-10.22-8.17c-3.98-3.18-4.62-8.98-1.44-12.96Zm-94.29,91.81c0-5.09,4.13-9.22,9.23-9.22h61.52c39.07,0,70.74,31.65,70.74,70.68s-31.67,70.68-70.74,70.68h-96.73l10.22,8.17c3.98,3.18,4.62,8.98,1.44,12.96-3.18,3.98-8.99,4.62-12.97,1.44l-30.76-24.59c-2.19-1.75-3.46-4.4-3.46-7.2s1.27-5.45,3.46-7.2l30.76-24.59c3.98-3.18,9.79-2.54,12.97,1.44,3.18,3.98,2.54,9.78-1.44,12.96l-10.22,8.17h96.73c28.88,0,52.29-23.39,52.29-52.24s-23.41-52.24-52.29-52.24h-61.52c-5.1,0-9.23-4.13-9.23-9.22Z"/></svg>