<svg width="256" height="256" viewBox="0 0 256 256" fill="none" xmlns="http://www.w3.org/2000/svg">
<path fill-rule="evenodd" clip-rule="evenodd" d="M253 128C253 197.036 197.036 253 128 253C58.9644 253 3 197.036 3 128C3 58.9644 58.9644 3 128 3C197.036 3 253 58.9644 253 128ZM149.338 71.1641C168.576 72.6289 184.836 85.373 184.836 85.373C184.836 85.373 203 111.74 206.223 163.498C187.912 184.641 160.08 184.787 160.08 184.787L154.27 177.023C164.133 173.605 175.314 167.453 184.934 156.369C173.41 165.109 156.076 174.143 128.098 174.143C100.119 174.143 82.7363 165.061 71.2617 156.369C80.8809 167.453 92.0625 173.605 101.926 177.023L96.1152 184.787C96.1152 184.787 68.2832 184.641 49.9727 163.498C53.0977 111.74 71.2617 85.373 71.2617 85.373C71.2617 85.373 86.5938 73.0684 106.76 71.1641L108.469 74.6309C92.5996 78.1953 83.127 84.9824 74.7773 92.4531C89.1328 85.1289 103.342 78.2441 128.049 78.2441C152.756 78.2441 166.965 85.1289 181.32 92.4531C172.971 84.9824 165.012 78.8789 147.629 74.6309L149.338 71.1641ZM92.4531 135.08C92.4531 142.941 98.0195 149.289 104.904 149.289C111.789 149.289 117.355 142.941 117.355 135.08C117.355 127.219 111.789 120.871 104.904 120.871C98.0195 120.871 92.4531 127.219 92.4531 135.08ZM138.645 135.08C138.645 142.941 144.211 149.289 151.096 149.289C157.932 149.289 163.547 142.941 163.547 135.08C163.547 127.219 157.98 120.871 151.096 120.871C144.211 120.871 138.645 127.219 138.645 135.08Z" fill="black"/>
</svg>
