<svg width="256" height="256" viewBox="0 0 256 256" fill="none" xmlns="http://www.w3.org/2000/svg">
<path fill-rule="evenodd" clip-rule="evenodd" d="M128.103 5C58.9245 5 3 61.3748 3 131.118C3 186.868 38.8327 234.058 88.5422 250.761C94.7572 252.016 97.0337 248.047 97.0337 244.708C97.0337 241.784 96.8288 231.762 96.8288 221.32C62.0281 228.839 54.7812 206.286 54.7812 206.286C49.1885 191.67 40.9018 187.913 40.9018 187.913C29.5116 180.187 41.7315 180.187 41.7315 180.187C54.3663 181.023 60.9961 193.133 60.9961 193.133C72.179 212.341 90.199 206.914 97.4486 203.572C98.4831 195.429 101.799 189.791 105.32 186.66C77.5642 183.736 48.3613 172.879 48.3613 124.435C48.3613 110.654 53.3292 99.3791 61.201 90.6102C59.959 87.4789 55.6083 74.5306 62.4455 57.2005C62.4455 57.2005 73.0087 53.859 96.8263 70.1462C107.023 67.3855 117.54 65.9811 128.103 65.9693C138.667 65.9693 149.435 67.4325 159.378 70.1462C183.198 53.859 193.761 57.2005 193.761 57.2005C200.599 74.5306 196.245 87.4789 195.003 90.6102C203.083 99.3791 207.846 110.654 207.846 124.435C207.846 172.879 178.643 183.526 150.679 186.66C155.237 190.627 159.171 198.143 159.171 210.045C159.171 226.958 158.966 240.531 158.966 244.706C158.966 248.047 161.245 252.016 167.457 250.763C217.167 234.056 252.999 186.868 252.999 131.118C253.204 61.3748 197.075 5 128.103 5Z" fill="#ffffff"/>
</svg>
