<svg width="256" height="256" viewBox="0 0 256 256" fill="none" xmlns="http://www.w3.org/2000/svg">
<path d="M231.036 248.69V6.59589H213.678V0.785645H237.773V254.786H213.678V248.975L231.036 248.69Z" fill="#040404"/>
<path d="M81.4764 83.5897V95.8134H81.8251C84.8765 91.3367 88.9028 87.6378 93.6345 84.939C98.2315 82.3752 103.542 81.0894 109.407 81.0894C115.113 81.0894 120.344 82.2006 125.021 84.4231C129.736 86.6377 133.343 90.5429 135.8 96.1706C138.479 92.2019 142.109 88.7014 146.737 85.6931C151.334 82.653 156.803 81.137 163.064 81.137C167.836 81.137 172.258 81.7244 176.3 82.8832C180.374 84.058 183.862 85.9233 186.762 88.495C189.663 91.0589 191.938 94.4164 193.571 98.5757C195.196 102.719 196.012 107.704 196.012 113.578V174.141H171.204V122.864C171.204 119.824 171.085 116.967 170.855 114.292C170.69 111.855 170.039 109.474 168.937 107.291C167.883 105.299 166.274 103.656 164.309 102.56C162.272 101.401 159.506 100.814 155.987 100.814C152.499 100.814 149.678 101.489 147.506 102.822C145.35 104.172 143.662 105.918 142.441 108.077C141.181 110.355 140.349 112.855 140 115.435C139.588 118.189 139.382 120.967 139.382 123.769V174.172H114.574V123.372C114.574 120.69 114.519 118.03 114.408 115.435C114.318 112.943 113.814 110.49 112.918 108.164C112.062 105.965 110.54 104.1 108.559 102.822C106.514 101.489 103.518 100.814 99.5234 100.814C97.9541 100.88 96.4006 101.147 94.8947 101.608C92.8499 102.199 90.9477 103.211 89.307 104.576C87.5 106.037 85.9624 108.14 84.6784 110.879C83.4023 113.625 82.7603 117.213 82.7603 121.674V174.22H57.9526V83.7325L81.4764 83.5897Z" fill="#040404"/>
<path d="M23.6656 6.84991V248.944H41.0231V254.754H16.9287V0.753906H40.9438V6.56416L23.6656 6.84991Z" fill="#040404"/>
</svg>
