<svg width="1120" height="1120" viewBox="0 0 1120 1120" fill="none" xmlns="http://www.w3.org/2000/svg">
<path fill-rule="evenodd" clip-rule="evenodd" d="M723.813 257.371C715.182 250.479 702.597 251.889 695.705 260.52C688.812 269.151 690.222 281.736 698.854 288.628L729.375 313H484.333C389.709 313 313 389.709 313 484.333C313 578.958 389.709 655.667 484.333 655.667H635.667C646.712 655.667 655.667 646.712 655.667 635.667C655.667 624.621 646.712 615.667 635.667 615.667H484.333C411.8 615.667 353 556.867 353 484.333C353 411.8 411.8 353 484.333 353H730.429L698.854 378.213C690.222 385.106 688.812 397.69 695.705 406.322C702.597 414.953 715.182 416.363 723.813 409.471L799.48 349.05C804.232 345.254 807 339.503 807 333.421C807 333.351 807 333.281 806.999 333.211C807 333.141 807 333.071 807 333C807 325.366 802.723 318.732 796.435 315.361L723.813 257.371ZM421.146 741.786C429.778 734.894 431.188 722.309 424.295 713.678C417.403 705.046 404.818 703.637 396.187 710.529L320.52 770.95C315.768 774.745 313 780.497 313 786.579C313 786.649 313 786.719 313.001 786.788C313 786.859 313 786.929 313 787C313 794.634 317.277 801.27 323.567 804.64L396.187 862.628C404.818 869.521 417.403 868.111 424.295 859.479C431.188 850.848 429.778 838.263 421.146 831.371L390.626 807H635.667C730.291 807 807 730.291 807 635.667C807 541.042 730.291 464.333 635.667 464.333H484.333C473.288 464.333 464.333 473.288 464.333 484.333C464.333 495.379 473.288 504.333 484.333 504.333H635.667C708.2 504.333 767 563.133 767 635.667C767 708.2 708.2 767 635.667 767H389.571L421.146 741.786Z" fill="#F4CB00"/>
<path fill-rule="evenodd" clip-rule="evenodd" d="M559.514 0H560.486C571.151 0.00906609 579.789 8.66195 579.78 19.3268C579.771 29.9916 571.118 38.6298 560.453 38.6207H559.547C548.882 38.6298 540.229 29.9916 540.22 19.3268C540.211 8.66196 548.849 0.00906978 559.514 0ZM634.455 24.0456C636.286 13.5392 646.287 6.50642 656.794 8.33753C657.112 8.39297 657.43 8.44867 657.748 8.50464C668.251 10.354 675.266 20.3677 673.417 30.871C671.567 41.3742 661.554 48.3896 651.05 46.5403C650.755 46.4882 650.459 46.4363 650.163 46.3847C639.656 44.5536 632.623 34.552 634.455 24.0456ZM485.545 24.0456C487.376 34.5521 480.344 44.5536 469.837 46.3847C469.541 46.4363 469.245 46.4882 468.949 46.5403C458.446 48.3896 448.432 41.3743 446.583 30.871C444.734 20.3678 451.749 10.354 462.252 8.50466C462.57 8.44869 462.888 8.39299 463.206 8.33756C473.713 6.50644 483.714 13.5392 485.545 24.0456ZM726.389 45.0302C730.028 35.0057 741.105 29.8298 751.13 33.4694C751.433 33.5793 751.735 33.6895 752.038 33.7998C762.056 37.4569 767.212 48.5429 763.555 58.5611C759.898 68.5793 748.812 73.736 738.794 70.0789L738.466 69.9591C738.294 69.8964 738.122 69.8339 737.95 69.7714C727.925 66.1318 722.749 55.0548 726.389 45.0302ZM393.611 45.0303C397.251 55.0548 392.075 66.1318 382.05 69.7715C381.769 69.8737 381.487 69.9762 381.206 70.0789C371.188 73.736 360.102 68.5793 356.445 58.5611C352.788 48.5429 357.944 37.4569 367.962 33.7999C368.265 33.6895 368.567 33.5793 368.87 33.4695C378.895 29.8298 389.972 35.0057 393.611 45.0303ZM813.261 81.7797C818.594 72.5441 830.404 69.3804 839.64 74.7134C839.919 74.8747 840.198 75.0362 840.478 75.198C849.704 80.547 852.847 92.3627 847.498 101.589C842.149 110.816 830.334 113.959 821.107 108.61C820.847 108.459 820.587 108.309 820.327 108.159C811.092 102.826 807.928 91.0154 813.261 81.7797ZM306.739 81.7797C312.072 91.0154 308.908 102.826 299.673 108.159C299.413 108.309 299.153 108.459 298.893 108.61C289.666 113.959 277.851 110.816 272.502 101.589C267.153 92.3627 270.296 80.547 279.523 75.198C279.802 75.0362 280.081 74.8747 280.36 74.7134C289.596 69.3804 301.406 72.5441 306.739 81.7797ZM227.602 133.087C234.454 141.259 233.384 153.439 225.212 160.291C224.982 160.485 224.752 160.678 224.522 160.871C216.361 167.738 204.18 166.689 197.314 158.528C190.447 150.368 191.496 138.186 199.656 131.32C199.903 131.112 200.15 130.905 200.398 130.698C208.57 123.845 220.749 124.915 227.602 133.087ZM892.398 133.087C899.251 124.915 911.43 123.845 919.603 130.698C919.758 130.828 919.914 130.959 920.07 131.09L920.344 131.32C928.504 138.186 929.553 150.368 922.687 158.528C915.82 166.689 903.639 167.738 895.478 160.871C895.248 160.678 895.018 160.485 894.788 160.292C886.616 153.439 885.546 141.259 892.398 133.087ZM158.528 197.313C166.689 204.18 167.738 216.361 160.871 224.522C160.678 224.752 160.485 224.982 160.292 225.212C153.439 233.384 141.259 234.454 133.087 227.602C124.915 220.749 123.845 208.57 130.698 200.397C130.905 200.15 131.112 199.903 131.32 199.656C138.186 191.496 150.368 190.447 158.528 197.313ZM961.472 197.314C969.632 190.447 981.814 191.496 988.68 199.656C988.888 199.903 989.095 200.15 989.302 200.398C996.155 208.57 995.085 220.749 986.913 227.602C978.741 234.454 966.561 233.384 959.709 225.212C959.516 224.982 959.322 224.752 959.129 224.522C952.262 216.361 953.311 204.18 961.472 197.314ZM101.589 272.502C110.816 277.851 113.959 289.666 108.61 298.893C108.52 299.048 108.43 299.203 108.34 299.359C108.279 299.463 108.219 299.568 108.159 299.673C102.826 308.908 91.0154 312.072 81.7797 306.739C72.5441 301.406 69.3804 289.596 74.7134 280.36L74.8519 280.12C74.9672 279.921 75.0825 279.722 75.198 279.522C80.547 270.296 92.3627 267.153 101.589 272.502ZM1018.41 272.502C1027.64 267.153 1039.45 270.296 1044.8 279.523C1044.96 279.802 1045.13 280.081 1045.29 280.36C1050.62 289.596 1047.46 301.406 1038.22 306.739C1028.98 312.072 1017.17 308.908 1011.84 299.673L1011.39 298.893C1006.04 289.666 1009.18 277.851 1018.41 272.502ZM1061.44 356.445C1071.46 352.788 1082.54 357.944 1086.2 367.962C1086.27 368.16 1086.34 368.358 1086.42 368.555L1086.53 368.87C1090.17 378.895 1084.99 389.972 1074.97 393.611C1064.95 397.251 1053.87 392.075 1050.23 382.05C1050.13 381.769 1050.02 381.487 1049.92 381.206C1046.26 371.188 1051.42 360.102 1061.44 356.445ZM58.5611 356.445C68.5793 360.102 73.736 371.188 70.0789 381.206C69.9762 381.487 69.8737 381.769 69.7714 382.05C66.1318 392.075 55.0548 397.251 45.0302 393.611C35.0057 389.972 29.8298 378.895 33.4694 368.87C33.5793 368.567 33.6895 368.265 33.7998 367.962C37.4569 357.944 48.5429 352.788 58.5611 356.445ZM1089.13 446.583C1099.63 444.734 1109.65 451.749 1111.5 462.252C1111.55 462.57 1111.61 462.888 1111.66 463.206C1113.49 473.713 1106.46 483.714 1095.95 485.545C1085.45 487.376 1075.45 480.344 1073.62 469.837C1073.56 469.541 1073.51 469.245 1073.46 468.949C1071.61 458.446 1078.63 448.432 1089.13 446.583ZM30.871 446.583C41.3742 448.433 48.3896 458.446 46.5403 468.95C46.4882 469.245 46.4363 469.541 46.3847 469.837C44.5536 480.344 34.552 487.377 24.0456 485.545C13.5392 483.714 6.50642 473.713 8.33753 463.206C8.39297 462.888 8.44867 462.57 8.50464 462.252C10.354 451.749 20.3677 444.734 30.871 446.583ZM1100.67 540.22C1111.34 540.211 1119.99 548.849 1120 559.514V560.486C1119.99 571.151 1111.34 579.789 1100.67 579.78C1090.01 579.771 1081.37 571.118 1081.38 560.453L1081.38 560L1081.38 559.547C1081.37 548.882 1090.01 540.229 1100.67 540.22ZM19.3268 540.22C29.9916 540.229 38.6298 548.882 38.6207 559.547V560.454C38.6298 571.118 29.9916 579.771 19.3268 579.78C8.66196 579.789 0.00906978 571.151 0 560.486V559.514C0.00906609 548.849 8.66195 540.211 19.3268 540.22ZM1095.95 634.455C1106.46 636.286 1113.49 646.287 1111.66 656.794C1111.61 657.112 1111.55 657.43 1111.5 657.748C1109.65 668.251 1099.63 675.266 1089.13 673.417C1078.63 671.567 1071.61 661.554 1073.46 651.05C1073.51 650.755 1073.56 650.459 1073.62 650.163C1075.45 639.656 1085.45 632.623 1095.95 634.455ZM24.0456 634.455C34.5521 632.624 44.5536 639.656 46.3847 650.163C46.4363 650.459 46.4882 650.755 46.5403 651.051C48.3896 661.554 41.3743 671.568 30.871 673.417C20.3678 675.266 10.354 668.251 8.50466 657.748C8.44869 657.43 8.39299 657.112 8.33756 656.794C6.50644 646.287 13.5392 636.286 24.0456 634.455ZM1074.97 726.389C1084.99 730.028 1090.17 741.105 1086.53 751.13C1086.42 751.433 1086.31 751.735 1086.2 752.038C1082.54 762.056 1071.46 767.212 1061.44 763.555C1051.42 759.898 1046.26 748.812 1049.92 738.794C1050.02 738.513 1050.13 738.231 1050.23 737.95C1053.87 727.925 1064.95 722.749 1074.97 726.389ZM45.0303 726.389C55.0548 722.749 66.1318 727.925 69.7715 737.95L70.0789 738.794C73.736 748.812 68.5793 759.898 58.5611 763.555C48.5429 767.212 37.4569 762.056 33.7999 752.038C33.6895 751.735 33.5793 751.433 33.4695 751.13C29.8298 741.106 35.0057 730.029 45.0303 726.389ZM81.7797 813.261C91.0154 807.928 102.826 811.092 108.159 820.327C108.309 820.587 108.459 820.847 108.61 821.107C113.959 830.334 110.816 842.149 101.589 847.498C92.3627 852.847 80.547 849.704 75.198 840.478C75.0362 840.199 74.8747 839.919 74.7134 839.64C69.3804 830.404 72.5441 818.594 81.7797 813.261ZM1038.22 813.261C1047.46 818.594 1050.62 830.404 1045.29 839.64C1045.13 839.919 1044.96 840.198 1044.8 840.478C1039.45 849.704 1027.64 852.847 1018.41 847.498C1009.18 842.149 1006.04 830.334 1011.39 821.107C1011.54 820.847 1011.69 820.587 1011.84 820.327C1017.17 811.092 1028.98 807.928 1038.22 813.261ZM133.087 892.398C141.259 885.546 153.439 886.616 160.291 894.788C160.485 895.018 160.678 895.248 160.871 895.478C167.738 903.639 166.689 915.82 158.528 922.687C150.368 929.553 138.186 928.504 131.32 920.344C131.112 920.097 130.905 919.85 130.698 919.603C123.845 911.43 124.915 899.251 133.087 892.398ZM986.913 892.398C995.085 899.251 996.155 911.43 989.302 919.603L988.68 920.344C981.814 928.504 969.632 929.553 961.472 922.687C953.311 915.82 952.262 903.639 959.129 895.478C959.29 895.287 959.451 895.096 959.611 894.904L959.709 894.788C966.561 886.616 978.741 885.546 986.913 892.398ZM197.313 961.472C204.18 953.311 216.361 952.262 224.522 959.129C224.752 959.322 224.982 959.515 225.212 959.709C233.384 966.561 234.454 978.741 227.602 986.913C220.749 995.085 208.57 996.155 200.397 989.302L199.656 988.68C191.496 981.814 190.447 969.632 197.313 961.472ZM922.687 961.472C929.553 969.632 928.504 981.814 920.344 988.68C920.152 988.841 919.96 989.002 919.768 989.163L919.603 989.302C911.43 996.155 899.251 995.085 892.398 986.913C885.546 978.741 886.616 966.561 894.788 959.709C895.018 959.516 895.248 959.322 895.478 959.129C903.639 952.262 915.82 953.311 922.687 961.472ZM272.502 1018.41C277.851 1009.18 289.666 1006.04 298.893 1011.39C299.153 1011.54 299.413 1011.69 299.673 1011.84C308.908 1017.17 312.072 1028.98 306.739 1038.22C301.406 1047.46 289.596 1050.62 280.36 1045.29C280.081 1045.13 279.802 1044.96 279.522 1044.8C270.296 1039.45 267.153 1027.64 272.502 1018.41ZM847.498 1018.41C852.847 1027.64 849.704 1039.45 840.478 1044.8C840.199 1044.96 839.919 1045.13 839.64 1045.29C830.404 1050.62 818.594 1047.46 813.261 1038.22C807.928 1028.98 811.092 1017.17 820.327 1011.84C820.587 1011.69 820.847 1011.54 821.107 1011.39C830.334 1006.04 842.149 1009.18 847.498 1018.41ZM356.445 1061.44C360.102 1051.42 371.188 1046.26 381.206 1049.92C381.487 1050.02 381.769 1050.13 382.05 1050.23C392.075 1053.87 397.251 1064.95 393.611 1074.97C389.972 1084.99 378.895 1090.17 368.87 1086.53C368.567 1086.42 368.265 1086.31 367.962 1086.2C357.944 1082.54 352.788 1071.46 356.445 1061.44ZM763.555 1061.44C767.212 1071.46 762.056 1082.54 752.038 1086.2C751.869 1086.26 751.701 1086.32 751.532 1086.38L751.13 1086.53C741.106 1090.17 730.029 1084.99 726.389 1074.97C722.749 1064.95 727.925 1053.87 737.95 1050.23C738.231 1050.13 738.513 1050.02 738.794 1049.92C748.812 1046.26 759.898 1051.42 763.555 1061.44ZM446.583 1089.13C448.433 1078.63 458.446 1071.61 468.95 1073.46C469.245 1073.51 469.541 1073.56 469.837 1073.62C480.344 1075.45 487.377 1085.45 485.545 1095.95C483.714 1106.46 473.713 1113.49 463.206 1111.66C462.888 1111.61 462.57 1111.55 462.252 1111.5C451.749 1109.65 444.734 1099.63 446.583 1089.13ZM673.417 1089.13C675.266 1099.63 668.251 1109.65 657.748 1111.5L656.794 1111.66C646.287 1113.49 636.286 1106.46 634.455 1095.95C632.624 1085.45 639.656 1075.45 650.163 1073.62C650.459 1073.56 650.755 1073.51 651.051 1073.46C661.554 1071.61 671.568 1078.63 673.417 1089.13ZM540.22 1100.67C540.229 1090.01 548.882 1081.37 559.547 1081.38L560 1081.38L560.454 1081.38C571.118 1081.37 579.771 1090.01 579.78 1100.67C579.789 1111.34 571.151 1119.99 560.486 1120H559.514C548.849 1119.99 540.211 1111.34 540.22 1100.67Z" fill="#F4CB00"/>
</svg>
