<svg width="32" height="40" viewBox="0 0 32 40" fill="none" xmlns="http://www.w3.org/2000/svg">
<path fill-rule="evenodd" clip-rule="evenodd" d="M0 15C0 8.92487 4.92487 4 11 4H31C31.5523 4 32 4.44772 32 5C32 5.55228 31.5523 6 31 6H11C6.02944 6 2 10.0294 2 15C2 19.9706 6.02944 24 11 24H21C21.5523 24 22 24.4477 22 25C22 25.5523 21.5523 26 21 26H11C4.92487 26 0 21.0751 0 15ZM10 15C10 14.4477 10.4477 14 11 14H21C27.0751 14 32 18.9249 32 25C32 31.0751 27.0751 36 21 36H1C0.447715 36 0 35.5523 0 35C0 34.4477 0.447715 34 1 34H21C25.9706 34 30 29.9706 30 25C30 20.0294 25.9706 16 21 16H11C10.4477 16 10 15.5523 10 15Z" fill="#D5DEFA"/>
<path fill-rule="evenodd" clip-rule="evenodd" d="M25.2191 0.375342C25.5641 -0.0559202 26.1934 -0.125842 26.6247 0.219168L31.6247 4.21917C31.8619 4.40894 32 4.69622 32 5C32 5.30378 31.8619 5.59113 31.6247 5.78091L26.6247 9.78091C26.1934 10.1259 25.5641 10.056 25.2191 9.62473C24.8741 9.19347 24.944 8.56418 25.3753 8.21917L29.3992 5.00004L25.3753 1.78091C24.944 1.4359 24.8741 0.806604 25.2191 0.375342ZM6.78087 30.3753C7.12588 30.8066 7.05596 31.4359 6.62469 31.7809L2.60078 35L6.62469 38.2192C7.05596 38.5642 7.12588 39.1935 6.78087 39.6247C6.43586 40.056 5.80657 40.1259 5.37531 39.7809L0.375305 35.7809C0.13809 35.5911 0 35.3038 0 35C0 34.6962 0.13809 34.4089 0.375305 34.2192L5.37531 30.2192C5.80657 29.8742 6.43586 29.9441 6.78087 30.3753Z" fill="#D5DEFA"/>
</svg>
