<svg width="1120" height="1120" viewBox="0 0 1120 1120" fill="none" xmlns="http://www.w3.org/2000/svg">
<path fill-rule="evenodd" clip-rule="evenodd" d="M486.883 4.73228C510.822 1.60967 535.228 0 560 0C584.772 0 609.178 1.60967 633.117 4.73229C643.692 6.11174 651.147 15.8029 649.767 26.3781C648.388 36.9534 638.697 44.408 628.121 43.0285C605.835 40.1214 583.097 38.6207 560 38.6207C536.903 38.6207 514.165 40.1214 491.879 43.0285C481.303 44.408 471.612 36.9533 470.233 26.3781C468.853 15.8029 476.308 6.11173 486.883 4.73228ZM370.868 52.9413C374.953 62.7926 370.279 74.0904 360.427 78.1756C318.051 95.7484 278.486 118.754 242.603 146.329C234.147 152.827 222.024 151.24 215.525 142.783C209.027 134.327 210.614 122.204 219.07 115.706C257.599 86.098 300.097 61.3842 345.634 42.5007C355.485 38.4155 366.783 43.0899 370.868 52.9413ZM749.132 52.9413C753.217 43.0899 764.515 38.4155 774.366 42.5007C819.903 61.3842 862.401 86.098 900.93 115.706C909.386 122.204 910.973 134.327 904.475 142.783C897.976 151.24 885.853 152.827 877.397 146.329C841.514 118.754 801.949 95.7484 759.573 78.1756C749.721 74.0904 745.047 62.7926 749.132 52.9413ZM142.783 215.525C151.24 222.024 152.827 234.147 146.329 242.603C118.754 278.486 95.7484 318.051 78.1756 360.427C74.0904 370.279 62.7926 374.953 52.9413 370.868C43.0899 366.783 38.4155 355.485 42.5007 345.634C61.3842 300.097 86.098 257.599 115.706 219.07C122.204 210.614 134.327 209.027 142.783 215.525ZM977.217 215.525C985.673 209.027 997.796 210.614 1004.29 219.07C1033.9 257.599 1058.62 300.097 1077.5 345.634C1081.58 355.485 1076.91 366.783 1067.06 370.868C1057.21 374.953 1045.91 370.279 1041.82 360.427C1024.25 318.051 1001.25 278.486 973.671 242.603C967.173 234.147 968.76 222.024 977.217 215.525ZM26.3781 470.233C36.9534 471.612 44.408 481.303 43.0285 491.879C40.1214 514.165 38.6207 536.903 38.6207 560C38.6207 583.097 40.1214 605.835 43.0285 628.121C44.408 638.697 36.9533 648.388 26.3781 649.767C15.8029 651.147 6.11173 643.692 4.73228 633.117C1.60967 609.178 0 584.772 0 560C0 535.228 1.60967 510.822 4.73229 486.883C6.11174 476.308 15.8029 468.853 26.3781 470.233ZM1093.62 470.233C1104.2 468.853 1113.89 476.308 1115.27 486.883C1118.39 510.822 1120 535.228 1120 560C1120 584.772 1118.39 609.178 1115.27 633.117C1113.89 643.692 1104.2 651.147 1093.62 649.767C1083.05 648.388 1075.59 638.697 1076.97 628.121C1079.88 605.835 1081.38 583.097 1081.38 560C1081.38 536.903 1079.88 514.165 1076.97 491.879C1075.59 481.303 1083.05 471.612 1093.62 470.233ZM52.9413 749.132C62.7926 745.047 74.0904 749.721 78.1756 759.573C95.7484 801.949 118.754 841.514 146.329 877.397C152.827 885.853 151.24 897.976 142.783 904.475C134.327 910.973 122.204 909.386 115.706 900.93C86.098 862.401 61.3842 819.903 42.5007 774.366C38.4155 764.515 43.0899 753.217 52.9413 749.132ZM1067.06 749.132C1076.91 753.217 1081.58 764.515 1077.5 774.366C1058.62 819.903 1033.9 862.401 1004.29 900.93C997.796 909.386 985.673 910.973 977.217 904.475C968.76 897.976 967.173 885.853 973.671 877.397C1001.25 841.514 1024.25 801.949 1041.82 759.573C1045.91 749.721 1057.21 745.047 1067.06 749.132ZM215.525 977.217C222.024 968.76 234.147 967.173 242.603 973.671C278.486 1001.25 318.051 1024.25 360.427 1041.82C370.279 1045.91 374.953 1057.21 370.868 1067.06C366.783 1076.91 355.485 1081.58 345.634 1077.5C300.097 1058.62 257.599 1033.9 219.07 1004.29C210.614 997.796 209.027 985.673 215.525 977.217ZM904.475 977.217C910.973 985.673 909.386 997.796 900.93 1004.29C862.401 1033.9 819.903 1058.62 774.366 1077.5C764.515 1081.58 753.217 1076.91 749.132 1067.06C745.047 1057.21 749.721 1045.91 759.573 1041.82C801.949 1024.25 841.514 1001.25 877.397 973.671C885.853 967.173 897.976 968.76 904.475 977.217ZM470.233 1093.62C471.612 1083.05 481.303 1075.59 491.879 1076.97C514.165 1079.88 536.903 1081.38 560 1081.38C583.097 1081.38 605.835 1079.88 628.121 1076.97C638.697 1075.59 648.388 1083.05 649.767 1093.62C651.147 1104.2 643.692 1113.89 633.117 1115.27C609.178 1118.39 584.772 1120 560 1120C535.228 1120 510.822 1118.39 486.883 1115.27C476.308 1113.89 468.853 1104.2 470.233 1093.62Z" fill="#2E5DE4"/>
<path fill-rule="evenodd" clip-rule="evenodd" d="M723.813 257.371C715.182 250.479 702.597 251.889 695.705 260.52C688.812 269.151 690.222 281.736 698.854 288.628L729.375 313H484.333C389.709 313 313 389.709 313 484.333C313 578.958 389.709 655.667 484.333 655.667H635.667C646.712 655.667 655.667 646.712 655.667 635.667C655.667 624.621 646.712 615.667 635.667 615.667H484.333C411.8 615.667 353 556.867 353 484.333C353 411.8 411.8 353 484.333 353H730.429L698.854 378.213C690.222 385.106 688.812 397.69 695.705 406.322C702.597 414.953 715.182 416.363 723.813 409.471L799.48 349.05C804.232 345.254 807 339.503 807 333.421C807 333.351 807 333.281 806.999 333.211C807 333.141 807 333.071 807 333C807 325.366 802.723 318.732 796.435 315.361L723.813 257.371ZM421.146 741.786C429.778 734.894 431.188 722.309 424.295 713.678C417.403 705.046 404.818 703.637 396.187 710.529L320.52 770.95C315.768 774.745 313 780.497 313 786.579C313 786.649 313 786.719 313.001 786.788C313 786.859 313 786.929 313 787C313 794.634 317.277 801.27 323.567 804.64L396.187 862.628C404.818 869.521 417.403 868.111 424.295 859.479C431.188 850.848 429.778 838.263 421.146 831.371L390.626 807H635.667C730.291 807 807 730.291 807 635.667C807 541.042 730.291 464.333 635.667 464.333H484.333C473.288 464.333 464.333 473.288 464.333 484.333C464.333 495.379 473.288 504.333 484.333 504.333H635.667C708.2 504.333 767 563.133 767 635.667C767 708.2 708.2 767 635.667 767H389.571L421.146 741.786Z" fill="#2E5DE4"/>
</svg>
