<svg width="1120" height="1120" viewBox="0 0 1120 1120" fill="none" xmlns="http://www.w3.org/2000/svg">
<path fill-rule="evenodd" clip-rule="evenodd" d="M723.813 257.371C715.182 250.479 702.597 251.889 695.705 260.52C688.812 269.151 690.222 281.736 698.854 288.628L729.375 313H484.333C389.709 313 313 389.709 313 484.333C313 578.958 389.709 655.667 484.333 655.667H635.667C646.712 655.667 655.667 646.712 655.667 635.667C655.667 624.621 646.712 615.667 635.667 615.667H484.333C411.8 615.667 353 556.867 353 484.333C353 411.8 411.8 353 484.333 353H730.429L698.854 378.213C690.222 385.106 688.812 397.69 695.705 406.322C702.597 414.953 715.182 416.363 723.813 409.471L799.48 349.05C804.232 345.254 807 339.503 807 333.421C807 333.351 807 333.281 806.999 333.211C807 333.141 807 333.071 807 333C807 325.366 802.723 318.732 796.435 315.361L723.813 257.371ZM421.146 741.786C429.778 734.894 431.188 722.309 424.295 713.678C417.403 705.046 404.818 703.637 396.187 710.529L320.52 770.95C315.768 774.745 313 780.497 313 786.579C313 786.649 313 786.719 313.001 786.788C313 786.859 313 786.929 313 787C313 794.634 317.277 801.27 323.567 804.64L396.187 862.628C404.818 869.521 417.403 868.111 424.295 859.479C431.188 850.848 429.778 838.263 421.146 831.371L390.626 807H635.667C730.291 807 807 730.291 807 635.667C807 541.042 730.291 464.333 635.667 464.333H484.333C473.288 464.333 464.333 473.288 464.333 484.333C464.333 495.379 473.288 504.333 484.333 504.333H635.667C708.2 504.333 767 563.133 767 635.667C767 708.2 708.2 767 635.667 767H389.571L421.146 741.786Z" fill="#B5B8C2"/>
<path fill-rule="evenodd" clip-rule="evenodd" d="M560 1080C847.188 1080 1080 847.188 1080 560C1080 272.812 847.188 40 560 40C272.812 40 40 272.812 40 560C40 847.188 272.812 1080 560 1080ZM560 1120C869.279 1120 1120 869.279 1120 560C1120 250.721 869.279 0 560 0C250.721 0 0 250.721 0 560C0 869.279 250.721 1120 560 1120Z" fill="#B5B8C2"/>
</svg>
